<?xml version="1.0" encoding="UTF-8" standalone="no"?>
<!-- Created with Inkscape (http://www.inkscape.org/) -->

<svg
   xmlns:dc="http://purl.org/dc/elements/1.1/"
   xmlns:cc="http://creativecommons.org/ns#"
   xmlns:rdf="http://www.w3.org/1999/02/22-rdf-syntax-ns#"
   xmlns:svg="http://www.w3.org/2000/svg"
   xmlns="http://www.w3.org/2000/svg"
   xmlns:sodipodi="http://sodipodi.sourceforge.net/DTD/sodipodi-0.dtd"
   xmlns:inkscape="http://www.inkscape.org/namespaces/inkscape"
   width="48px"
   height="48px"
   id="svg2985"
   version="1.1"
   inkscape:version="0.48.4 r9939"
   sodipodi:docname="bell-icon.svg">
  <defs
     id="defs2987" />
  <sodipodi:namedview
     id="base"
     pagecolor="#ffffff"
     bordercolor="#666666"
     borderopacity="1.0"
     inkscape:pageopacity="0.0"
     inkscape:pageshadow="2"
     inkscape:zoom="14"
     inkscape:cx="9.4642857"
     inkscape:cy="24"
     inkscape:current-layer="layer1"
     showgrid="true"
     inkscape:grid-bbox="true"
     inkscape:document-units="px"
     inkscape:snap-global="true"
     inkscape:snap-bbox="true"
     inkscape:window-width="1773"
     inkscape:window-height="1015"
     inkscape:window-x="130"
     inkscape:window-y="68"
     inkscape:window-maximized="0">
    <inkscape:grid
       type="xygrid"
       id="grid2993" />
  </sodipodi:namedview>
  <metadata
     id="metadata2990">
    <rdf:RDF>
      <cc:Work
         rdf:about="">
        <dc:format>image/svg+xml</dc:format>
        <dc:type
           rdf:resource="http://purl.org/dc/dcmitype/StillImage" />
        <dc:title></dc:title>
      </cc:Work>
    </rdf:RDF>
  </metadata>
  <g
     id="layer1"
     inkscape:label="Layer 1"
     inkscape:groupmode="layer">
    <path
       d="M 22.5 4 C 21.946 4 21.5 4.446 21.5 5 L 21.5 6.65625 C 14.197144 7.5123592 13.34375 12 13.34375 12 L 8.34375 32.28125 L 3 37.5 L 24 37.5 L 45 37.5 L 39.65625 32.28125 L 34.65625 12 C 34.65625 12 33.802856 7.5123592 26.5 6.65625 L 26.5 5 C 26.5 4.446 26.054 4 25.5 4 L 22.5 4 z M 24 10.5 C 30.61599 10.5 31 14.5 31 14.5 L 36 33.5 L 24 33.5 L 12 33.5 L 17 14.5 C 17 14.5 17.38401 10.5 24 10.5 z M 20 39 C 20 41.209139 21.790861 43 24 43 C 26.209139 43 28 41.209139 28 39 L 20 39 z "
       id="path2995" />
  </g>
</svg>
